<svg id="svg2" xmlns="http://www.w3.org/2000/svg" viewBox="-329 246 271 70"><style>.st0{fill:#58b325}.st1{fill:#387014}</style><path class="st0" d="M-323.6 304v-44c0-1.8.4-8.2 8.2-8.2h30.5c1.3 0 5.3.3 5.3 4.6v9.5c0 1.5-.5 4.7-5.2 4.7H-296c-.9 0-2.2.1-2.2 1 0 1.2.6 1.3 2 1.3h8.4c.7 0 4.9.2 4.9 5.2v14.2c0 5-4.1 5.1-4.9 5.1h-7.7c-1.8 0-2.2 1.8-2.3 3.5 0 3.4 0 11.3-6 11.3h-11.8c-7.7 0-8-6.4-8-8.2zM-259.1 276.9c.6.4 1.2.4 1.2.4l-.9 1.7c-1.7.3-3.1.4-4.5.4-7.9 0-15.4-5.7-15.4-14.3 0-7.3 6.2-13.3 13.7-13.3s13.8 6 13.8 13.3c0 5.1-3.1 9.7-7.9 11.8zm-17.5 9.7c0-.9.3-4.7 4.9-5.3 2.6-.3 5.8-.4 8.4-.4 2.6 0 4.5.1 4.5.1h.4c1.1 0 4.5.5 4.5 5.8v6.5c0 1.3.1 1.8.6 1.8.5-.1 1-.3 1.4-.3.5 0 .7.3.9 1.2.6 2.4.6 7.9.6 8.9 0 3.5-5.3 7.1-11.5 7.1s-13.6-2.7-13.9-11.3l-.8-14.1zM-197 301.8c0 4.6-.7 9.9-6.1 10.2h-10.4c-5.2 0-5.5-4.2-5.5-5.5v-9.7c0-2.2-.1-5.2-3.3-5.2-1.3 0-2.6.9-2.6 2.5v12c0 1.9-.6 6-5.3 6h-12.1c-1.2 0-5-.6-5-7.6v-32.2c0-.9.2-4.9 4-5.6 3.6-.7 7.7-1.9 11.6-1.9 1.5 0 3.4.6 3.4 4 0 1.9-.1 3.6-.1 4.8h1c3.7-7.5 10.3-8.3 13.1-8.3 9.9 0 16.6 4.9 17 15.2-.1.3.3 9.3.3 21.3zM-176.7 265.9c4.5 0 9.2 1.4 13.4 4.8v-14.2c0-1.2.5-3.8 3.1-3.8 3.5 0 15.1-.9 15.5-.9 1.2 0 4.7.4 4.7 5.2 0 .6.1 4.9.1 46.5 0 2.5-.7 8.8-7.6 8.8h-8.6c-1.8 0-5.8-.4-6.6-3.9-2.6 2-5.9 3.8-10.3 3.8-12.5 0-21.7-7.3-21.7-23.9.1-15.1 8.5-22.4 18-22.4zm16.1 25.5c0-2.6-1.5-5.1-4.8-5.1-2.9 0-4.4 2.4-4.4 5.1 0 2.3 1.6 4.8 4.9 4.9 2.8 0 4.3-2.6 4.3-4.9z"/><path class="st1" d="M-118.8 276.9c.6.4 1.2.4 1.2.4l-.9 1.7c-1.7.3-3.1.4-4.5.4-7.9 0-15.4-5.7-15.4-14.3 0-7.3 6.2-13.3 13.7-13.3s13.8 6 13.8 13.3c.1 5.1-3.1 9.7-7.9 11.8zm-17.5 9.7c0-.9.3-4.7 4.9-5.3 2.6-.3 5.8-.4 8.4-.4 2.6 0 4.5.1 4.5.1h.4c1.1 0 4.5.5 4.5 5.8v6.5c0 1.3.1 1.8.6 1.8.5-.1 1-.3 1.4-.3.5 0 .7.3.9 1.2.6 2.4.6 7.9.6 8.9 0 3.5-5.3 7.1-11.5 7.1s-13.6-2.7-13.9-11.3l-.8-14.1zM-75.2 288.6c1.3 0 1.9.3 2.5 1.2 1.3 2.5 4.2 8.9 5.5 12.1.2.5.3.9.3 1.3 0 3.8-8 8.8-19.6 8.8-16.2 0-16.7-14.8-16.7-18.2v-7.5h-1.9c-1.4 0-3.4-.5-3.4-3 0-4.4.7-13.9.7-14.3 0-.8.3-2.2 2.3-2.2.4 0 .9 0 1.8-.1V259c0-1.7.5-4.8 3.6-5.4 4.9-1 12.2-1.8 12.9-1.8 1.6 0 4.8.6 4.8 5 0 1.7 0 5.1.2 8.9 4.5-.3 8.1-.4 8.7-.4 1 0 2.9.3 2.9 2.9 0 3.5-.2 13.6-.2 13.6s-.1 3.1-3.8 3.4c-1 0-3.9.1-7.2.3v4.3c0 .8.6 1.3 1.6 1.3 1.7-.1 2.8-2.5 5-2.5z"/></svg>