<?xml version="1.0" encoding="utf-8"?>
<!-- Generator: Adobe Illustrator 16.0.0, SVG Export Plug-In . SVG Version: 6.00 Build 0)  -->
<!DOCTYPE svg PUBLIC "-//W3C//DTD SVG 1.1//EN" "http://www.w3.org/Graphics/SVG/1.1/DTD/svg11.dtd">
<svg version="1.1" id="Livello_1" xmlns="http://www.w3.org/2000/svg" xmlns:xlink="http://www.w3.org/1999/xlink" x="0px" y="0px"
	 width="266.5px" height="64.3px" viewBox="0 0 266.5 64.3" style="enable-background:new 0 0 266.5 64.3;" xml:space="preserve">
<style type="text/css">
<![CDATA[
	.st0{fill:#479117;}
	.st1{fill:#58B325;}
]]>
</style>
<g>
	<path class="st1" d="M0,55.8v-47C0,6.9,0.4,0,8.8,0h32.6C42.7,0,47,0.3,47,4.9V15c0,1.6-0.5,5-5.5,5H29.6c-1,0-2.4,0.1-2.4,1.1
		c0,1.3,0.7,1.4,2.2,1.4h9c0.8,0,5.2,0.2,5.2,5.5v15.1c0,5.3-4.4,5.4-5.2,5.4h-8.2c-1.9,0-2.4,1.9-2.5,3.7c0,3.6,0,12.1-6.4,12.1
		H8.8C0.4,64.4,0,57.6,0,55.8z"/>
	<path class="st1" d="M67.4,26.9c0.6,0.4,1.3,0.4,1.3,0.4l-1,1.8c-1.8,0.3-3.3,0.4-4.8,0.4c-8.5,0-16.4-6.1-16.4-15.2
		C46.4,6.4,53,0,61.1,0s14.8,6.4,14.8,14.2C75.8,19.7,72.5,24.6,67.4,26.9z M48.7,37.2c0-1,0.3-5,5.2-5.6c2.8-0.3,6.2-0.4,9-0.4
		s4.8,0.1,4.8,0.1h0.4c1.2,0,4.8,0.5,4.8,6.2v7c0,1.4,0.1,2,0.6,2c0.5-0.1,1.1-0.3,1.5-0.3c0.5,0,0.8,0.3,1,1.3
		c0.6,2.6,0.6,8.5,0.6,9.4c0,3.7-5.7,7.6-12.3,7.6c-6.6,0-14.6-2.9-14.9-12.1L48.7,37.2z"/>
	<path class="st1" d="M132.1,53.4c0,4.9-0.8,10.5-6.5,10.9h-11.1c-5.5,0-5.9-4.5-5.9-5.9V48.1c0-2.4-0.1-5.5-3.5-5.5
		c-1.4,0-2.8,1-2.8,2.7V58c0,2.1-0.7,6.4-5.7,6.4H83.7c-1.3,0-5.3-0.7-5.3-8.1V22c0-1,0.2-5.2,4.2-6C86.5,15.2,90.9,14,95,14
		c1.6,0,3.6,0.7,3.6,4.2c0,2.1-0.1,3.8-0.1,5.1h1.1c3.9-8,11-8.9,14-8.9c10.5,0,17.7,5.2,18.1,16.2C131.7,31,132.1,40.6,132.1,53.4z
		"/>
	<path class="st1" d="M152.4,15c4.8,0,9.8,1.5,14.3,5.1V5c0-1.3,0.5-4,3.3-4c3.7,0,16.1-1,16.5-1c1.3,0,5,0.4,5,5.5
		c0,0.6,0.1,5.2,0.1,49.6c0,2.7-0.8,9.3-8.1,9.3h-9.1c-2,0-6.2-0.4-7.1-4.1c-2.8,2.2-6.3,4-11,4c-13.4,0-23.1-7.8-23.1-25.5
		C133.2,22.9,142.2,15,152.4,15z M169.5,42.3c0-2.8-1.6-5.4-5.1-5.4c-3,0-4.7,2.6-4.7,5.4c0,2.5,1.7,5.1,5.2,5.2
		C167.9,47.5,169.5,44.8,169.5,42.3z"/>
	<path class="st0" d="M213.7,26.9c0.6,0.4,1.3,0.4,1.3,0.4l-1,1.8c-1.8,0.3-3.3,0.4-4.8,0.4c-8.5,0-16.4-6.1-16.4-15.2
		c0-7.8,6.6-14.2,14.7-14.2c8.1,0,14.8,6.4,14.8,14.2C222.1,19.7,218.8,24.6,213.7,26.9z M195,37.2c0-1,0.3-5,5.2-5.6
		c2.8-0.3,6.2-0.4,9-0.4s4.8,0.1,4.8,0.1h0.4c1.2,0,4.8,0.5,4.8,6.2v7c0,1.4,0.1,2,0.6,2c0.5-0.1,1.1-0.3,1.5-0.3
		c0.5,0,0.8,0.3,1,1.3c0.6,2.6,0.6,8.5,0.6,9.4c0,3.7-5.7,7.6-12.3,7.6s-14.6-2.9-14.9-12.1L195,37.2z"/>
	<path class="st0" d="M257.6,39.3c1.4,0,2.1,0.3,2.7,1.3c1.4,2.7,4.5,9.4,5.9,12.9c0.2,0.5,0.3,1,0.3,1.4c0,4-8.6,9.3-20.9,9.3
		c-17.3,0-17.8-15.8-17.8-19.4v-8h-2.1c-1.5,0-3.6-0.5-3.6-3.2c0-4.7,0.8-14.9,0.8-15.2c0-0.9,0.3-2.4,2.5-2.4c0.4,0,1,0,1.9-0.1
		V7.7c0-1.8,0.5-5.1,3.8-5.8c5.2-1.1,13-1.9,13.8-1.9c1.7,0,5.1,0.6,5.1,5.3c0,1.8,0,5.4,0.2,9.5c4.8-0.3,8.7-0.4,9.2-0.4
		c1.1,0,3,0.3,3,3c0,3.7-0.2,14.5-0.2,14.5s-0.1,3.3-4,3.6c-1.1,0-4.1,0.1-7.7,0.3v4.6c0,0.9,0.6,1.4,1.7,1.4
		C254.2,41.9,255.2,39.3,257.6,39.3z"/>
</g>
</svg>
